<?xml version="1.0" encoding="utf-8" standalone="no"?>
<!DOCTYPE svg PUBLIC "-//W3C//DTD SVG 1.1//EN"
  "http://www.w3.org/Graphics/SVG/1.1/DTD/svg11.dtd">
<!-- Created with matplotlib (https://matplotlib.org/) -->
<svg height="288pt" version="1.1" viewBox="0 0 432 288" width="432pt" xmlns="http://www.w3.org/2000/svg" xmlns:xlink="http://www.w3.org/1999/xlink">
 <metadata>
  <rdf:RDF xmlns:cc="http://creativecommons.org/ns#" xmlns:dc="http://purl.org/dc/elements/1.1/" xmlns:rdf="http://www.w3.org/1999/02/22-rdf-syntax-ns#">
   <cc:Work>
    <dc:type rdf:resource="http://purl.org/dc/dcmitype/StillImage"/>
    <dc:date>2021-06-20T12:41:46.547801</dc:date>
    <dc:format>image/svg+xml</dc:format>
    <dc:creator>
     <cc:Agent>
      <dc:title>Matplotlib v3.3.4, https://matplotlib.org/</dc:title>
     </cc:Agent>
    </dc:creator>
   </cc:Work>
  </rdf:RDF>
 </metadata>
 <defs>
  <style type="text/css">*{stroke-linecap:butt;stroke-linejoin:round;}</style>
 </defs>
 <g id="figure_1">
  <g id="patch_1">
   <path d="M 0 288 
L 432 288 
L 432 0 
L 0 0 
z
" style="fill:#ffffff;"/>
  </g>
  <g id="axes_1">
   <g id="patch_2">
    <path d="M 51.84 253.44 
L 388.8 253.44 
L 388.8 28.8 
L 51.84 28.8 
z
" style="fill:#e5e5e5;"/>
   </g>
   <g id="matplotlib.axis_1">
    <g id="xtick_1">
     <g id="line2d_1">
      <path clip-path="url(#p4a374da7a3)" d="M 98.317241 253.44 
L 98.317241 28.8 
" style="fill:none;stroke:#ffffff;stroke-linecap:square;stroke-width:0.8;"/>
     </g>
     <g id="line2d_2"/>
     <g id="text_1">
      <!-- 0.5 -->
      <g style="fill:#555555;" transform="translate(91.160835 263.778594)scale(0.09 -0.09)">
       <defs>
        <path d="M 31.78125 66.40625 
Q 24.171875 66.40625 20.328125 58.90625 
Q 16.5 51.421875 16.5 36.375 
Q 16.5 21.390625 20.328125 13.890625 
Q 24.171875 6.390625 31.78125 6.390625 
Q 39.453125 6.390625 43.28125 13.890625 
Q 47.125 21.390625 47.125 36.375 
Q 47.125 51.421875 43.28125 58.90625 
Q 39.453125 66.40625 31.78125 66.40625 
z
M 31.78125 74.21875 
Q 44.046875 74.21875 50.515625 64.515625 
Q 56.984375 54.828125 56.984375 36.375 
Q 56.984375 17.96875 50.515625 8.265625 
Q 44.046875 -1.421875 31.78125 -1.421875 
Q 19.53125 -1.421875 13.0625 8.265625 
Q 6.59375 17.96875 6.59375 36.375 
Q 6.59375 54.828125 13.0625 64.515625 
Q 19.53125 74.21875 31.78125 74.21875 
z
" id="DejaVuSans-48"/>
        <path d="M 10.6875 12.40625 
L 21 12.40625 
L 21 0 
L 10.6875 0 
z
" id="DejaVuSans-46"/>
        <path d="M 10.796875 72.90625 
L 49.515625 72.90625 
L 49.515625 64.59375 
L 19.828125 64.59375 
L 19.828125 46.734375 
Q 21.96875 47.46875 24.109375 47.828125 
Q 26.265625 48.1875 28.421875 48.1875 
Q 40.625 48.1875 47.75 41.5 
Q 54.890625 34.8125 54.890625 23.390625 
Q 54.890625 11.625 47.5625 5.09375 
Q 40.234375 -1.421875 26.90625 -1.421875 
Q 22.3125 -1.421875 17.546875 -0.640625 
Q 12.796875 0.140625 7.71875 1.703125 
L 7.71875 11.625 
Q 12.109375 9.234375 16.796875 8.0625 
Q 21.484375 6.890625 26.703125 6.890625 
Q 35.15625 6.890625 40.078125 11.328125 
Q 45.015625 15.765625 45.015625 23.390625 
Q 45.015625 31 40.078125 35.4375 
Q 35.15625 39.890625 26.703125 39.890625 
Q 22.75 39.890625 18.8125 39.015625 
Q 14.890625 38.140625 10.796875 36.28125 
z
" id="DejaVuSans-53"/>
       </defs>
       <use xlink:href="#DejaVuSans-48"/>
       <use x="63.623047" xlink:href="#DejaVuSans-46"/>
       <use x="95.410156" xlink:href="#DejaVuSans-53"/>
      </g>
     </g>
    </g>
    <g id="xtick_2">
     <g id="line2d_3">
      <path clip-path="url(#p4a374da7a3)" d="M 156.413793 253.44 
L 156.413793 28.8 
" style="fill:none;stroke:#ffffff;stroke-linecap:square;stroke-width:0.8;"/>
     </g>
     <g id="line2d_4"/>
     <g id="text_2">
      <!-- 1.0 -->
      <g style="fill:#555555;" transform="translate(149.257387 263.778594)scale(0.09 -0.09)">
       <defs>
        <path d="M 12.40625 8.296875 
L 28.515625 8.296875 
L 28.515625 63.921875 
L 10.984375 60.40625 
L 10.984375 69.390625 
L 28.421875 72.90625 
L 38.28125 72.90625 
L 38.28125 8.296875 
L 54.390625 8.296875 
L 54.390625 0 
L 12.40625 0 
z
" id="DejaVuSans-49"/>
       </defs>
       <use xlink:href="#DejaVuSans-49"/>
       <use x="63.623047" xlink:href="#DejaVuSans-46"/>
       <use x="95.410156" xlink:href="#DejaVuSans-48"/>
      </g>
     </g>
    </g>
    <g id="xtick_3">
     <g id="line2d_5">
      <path clip-path="url(#p4a374da7a3)" d="M 214.510345 253.44 
L 214.510345 28.8 
" style="fill:none;stroke:#ffffff;stroke-linecap:square;stroke-width:0.8;"/>
     </g>
     <g id="line2d_6"/>
     <g id="text_3">
      <!-- 1.5 -->
      <g style="fill:#555555;" transform="translate(207.353939 263.778594)scale(0.09 -0.09)">
       <use xlink:href="#DejaVuSans-49"/>
       <use x="63.623047" xlink:href="#DejaVuSans-46"/>
       <use x="95.410156" xlink:href="#DejaVuSans-53"/>
      </g>
     </g>
    </g>
    <g id="xtick_4">
     <g id="line2d_7">
      <path clip-path="url(#p4a374da7a3)" d="M 272.606897 253.44 
L 272.606897 28.8 
" style="fill:none;stroke:#ffffff;stroke-linecap:square;stroke-width:0.8;"/>
     </g>
     <g id="line2d_8"/>
     <g id="text_4">
      <!-- 2.0 -->
      <g style="fill:#555555;" transform="translate(265.45049 263.778594)scale(0.09 -0.09)">
       <defs>
        <path d="M 19.1875 8.296875 
L 53.609375 8.296875 
L 53.609375 0 
L 7.328125 0 
L 7.328125 8.296875 
Q 12.9375 14.109375 22.625 23.890625 
Q 32.328125 33.6875 34.8125 36.53125 
Q 39.546875 41.84375 41.421875 45.53125 
Q 43.3125 49.21875 43.3125 52.78125 
Q 43.3125 58.59375 39.234375 62.25 
Q 35.15625 65.921875 28.609375 65.921875 
Q 23.96875 65.921875 18.8125 64.3125 
Q 13.671875 62.703125 7.8125 59.421875 
L 7.8125 69.390625 
Q 13.765625 71.78125 18.9375 73 
Q 24.125 74.21875 28.421875 74.21875 
Q 39.75 74.21875 46.484375 68.546875 
Q 53.21875 62.890625 53.21875 53.421875 
Q 53.21875 48.921875 51.53125 44.890625 
Q 49.859375 40.875 45.40625 35.40625 
Q 44.1875 33.984375 37.640625 27.21875 
Q 31.109375 20.453125 19.1875 8.296875 
z
" id="DejaVuSans-50"/>
       </defs>
       <use xlink:href="#DejaVuSans-50"/>
       <use x="63.623047" xlink:href="#DejaVuSans-46"/>
       <use x="95.410156" xlink:href="#DejaVuSans-48"/>
      </g>
     </g>
    </g>
    <g id="xtick_5">
     <g id="line2d_9">
      <path clip-path="url(#p4a374da7a3)" d="M 330.703448 253.44 
L 330.703448 28.8 
" style="fill:none;stroke:#ffffff;stroke-linecap:square;stroke-width:0.8;"/>
     </g>
     <g id="line2d_10"/>
     <g id="text_5">
      <!-- 2.5 -->
      <g style="fill:#555555;" transform="translate(323.547042 263.778594)scale(0.09 -0.09)">
       <use xlink:href="#DejaVuSans-50"/>
       <use x="63.623047" xlink:href="#DejaVuSans-46"/>
       <use x="95.410156" xlink:href="#DejaVuSans-53"/>
      </g>
     </g>
    </g>
    <g id="xtick_6">
     <g id="line2d_11">
      <path clip-path="url(#p4a374da7a3)" d="M 388.8 253.44 
L 388.8 28.8 
" style="fill:none;stroke:#ffffff;stroke-linecap:square;stroke-width:0.8;"/>
     </g>
     <g id="line2d_12"/>
     <g id="text_6">
      <!-- 3.0 -->
      <g style="fill:#555555;" transform="translate(381.643594 263.778594)scale(0.09 -0.09)">
       <defs>
        <path d="M 40.578125 39.3125 
Q 47.65625 37.796875 51.625 33 
Q 55.609375 28.21875 55.609375 21.1875 
Q 55.609375 10.40625 48.1875 4.484375 
Q 40.765625 -1.421875 27.09375 -1.421875 
Q 22.515625 -1.421875 17.65625 -0.515625 
Q 12.796875 0.390625 7.625 2.203125 
L 7.625 11.71875 
Q 11.71875 9.328125 16.59375 8.109375 
Q 21.484375 6.890625 26.8125 6.890625 
Q 36.078125 6.890625 40.9375 10.546875 
Q 45.796875 14.203125 45.796875 21.1875 
Q 45.796875 27.640625 41.28125 31.265625 
Q 36.765625 34.90625 28.71875 34.90625 
L 20.21875 34.90625 
L 20.21875 43.015625 
L 29.109375 43.015625 
Q 36.375 43.015625 40.234375 45.921875 
Q 44.09375 48.828125 44.09375 54.296875 
Q 44.09375 59.90625 40.109375 62.90625 
Q 36.140625 65.921875 28.71875 65.921875 
Q 24.65625 65.921875 20.015625 65.03125 
Q 15.375 64.15625 9.8125 62.3125 
L 9.8125 71.09375 
Q 15.4375 72.65625 20.34375 73.4375 
Q 25.25 74.21875 29.59375 74.21875 
Q 40.828125 74.21875 47.359375 69.109375 
Q 53.90625 64.015625 53.90625 55.328125 
Q 53.90625 49.265625 50.4375 45.09375 
Q 46.96875 40.921875 40.578125 39.3125 
z
" id="DejaVuSans-51"/>
       </defs>
       <use xlink:href="#DejaVuSans-51"/>
       <use x="63.623047" xlink:href="#DejaVuSans-46"/>
       <use x="95.410156" xlink:href="#DejaVuSans-48"/>
      </g>
     </g>
    </g>
    <g id="text_7">
     <!-- Frequency (Hz) -->
     <g style="fill:#555555;" transform="translate(178.844844 278.008594)scale(0.11 -0.11)">
      <defs>
       <path d="M 9.8125 72.90625 
L 51.703125 72.90625 
L 51.703125 64.59375 
L 19.671875 64.59375 
L 19.671875 43.109375 
L 48.578125 43.109375 
L 48.578125 34.8125 
L 19.671875 34.8125 
L 19.671875 0 
L 9.8125 0 
z
" id="DejaVuSans-70"/>
       <path d="M 41.109375 46.296875 
Q 39.59375 47.171875 37.8125 47.578125 
Q 36.03125 48 33.890625 48 
Q 26.265625 48 22.1875 43.046875 
Q 18.109375 38.09375 18.109375 28.8125 
L 18.109375 0 
L 9.078125 0 
L 9.078125 54.6875 
L 18.109375 54.6875 
L 18.109375 46.1875 
Q 20.953125 51.171875 25.484375 53.578125 
Q 30.03125 56 36.53125 56 
Q 37.453125 56 38.578125 55.875 
Q 39.703125 55.765625 41.0625 55.515625 
z
" id="DejaVuSans-114"/>
       <path d="M 56.203125 29.59375 
L 56.203125 25.203125 
L 14.890625 25.203125 
Q 15.484375 15.921875 20.484375 11.0625 
Q 25.484375 6.203125 34.421875 6.203125 
Q 39.59375 6.203125 44.453125 7.46875 
Q 49.3125 8.734375 54.109375 11.28125 
L 54.109375 2.78125 
Q 49.265625 0.734375 44.1875 -0.34375 
Q 39.109375 -1.421875 33.890625 -1.421875 
Q 20.796875 -1.421875 13.15625 6.1875 
Q 5.515625 13.8125 5.515625 26.8125 
Q 5.515625 40.234375 12.765625 48.109375 
Q 20.015625 56 32.328125 56 
Q 43.359375 56 49.78125 48.890625 
Q 56.203125 41.796875 56.203125 29.59375 
z
M 47.21875 32.234375 
Q 47.125 39.59375 43.09375 43.984375 
Q 39.0625 48.390625 32.421875 48.390625 
Q 24.90625 48.390625 20.390625 44.140625 
Q 15.875 39.890625 15.1875 32.171875 
z
" id="DejaVuSans-101"/>
       <path d="M 14.796875 27.296875 
Q 14.796875 17.390625 18.875 11.75 
Q 22.953125 6.109375 30.078125 6.109375 
Q 37.203125 6.109375 41.296875 11.75 
Q 45.40625 17.390625 45.40625 27.296875 
Q 45.40625 37.203125 41.296875 42.84375 
Q 37.203125 48.484375 30.078125 48.484375 
Q 22.953125 48.484375 18.875 42.84375 
Q 14.796875 37.203125 14.796875 27.296875 
z
M 45.40625 8.203125 
Q 42.578125 3.328125 38.25 0.953125 
Q 33.9375 -1.421875 27.875 -1.421875 
Q 17.96875 -1.421875 11.734375 6.484375 
Q 5.515625 14.40625 5.515625 27.296875 
Q 5.515625 40.1875 11.734375 48.09375 
Q 17.96875 56 27.875 56 
Q 33.9375 56 38.25 53.625 
Q 42.578125 51.265625 45.40625 46.390625 
L 45.40625 54.6875 
L 54.390625 54.6875 
L 54.390625 -20.796875 
L 45.40625 -20.796875 
z
" id="DejaVuSans-113"/>
       <path d="M 8.5 21.578125 
L 8.5 54.6875 
L 17.484375 54.6875 
L 17.484375 21.921875 
Q 17.484375 14.15625 20.5 10.265625 
Q 23.53125 6.390625 29.59375 6.390625 
Q 36.859375 6.390625 41.078125 11.03125 
Q 45.3125 15.671875 45.3125 23.6875 
L 45.3125 54.6875 
L 54.296875 54.6875 
L 54.296875 0 
L 45.3125 0 
L 45.3125 8.40625 
Q 42.046875 3.421875 37.71875 1 
Q 33.40625 -1.421875 27.6875 -1.421875 
Q 18.265625 -1.421875 13.375 4.4375 
Q 8.5 10.296875 8.5 21.578125 
z
M 31.109375 56 
z
" id="DejaVuSans-117"/>
       <path d="M 54.890625 33.015625 
L 54.890625 0 
L 45.90625 0 
L 45.90625 32.71875 
Q 45.90625 40.484375 42.875 44.328125 
Q 39.84375 48.1875 33.796875 48.1875 
Q 26.515625 48.1875 22.3125 43.546875 
Q 18.109375 38.921875 18.109375 30.90625 
L 18.109375 0 
L 9.078125 0 
L 9.078125 54.6875 
L 18.109375 54.6875 
L 18.109375 46.1875 
Q 21.34375 51.125 25.703125 53.5625 
Q 30.078125 56 35.796875 56 
Q 45.21875 56 50.046875 50.171875 
Q 54.890625 44.34375 54.890625 33.015625 
z
" id="DejaVuSans-110"/>
       <path d="M 48.78125 52.59375 
L 48.78125 44.1875 
Q 44.96875 46.296875 41.140625 47.34375 
Q 37.3125 48.390625 33.40625 48.390625 
Q 24.65625 48.390625 19.8125 42.84375 
Q 14.984375 37.3125 14.984375 27.296875 
Q 14.984375 17.28125 19.8125 11.734375 
Q 24.65625 6.203125 33.40625 6.203125 
Q 37.3125 6.203125 41.140625 7.25 
Q 44.96875 8.296875 48.78125 10.40625 
L 48.78125 2.09375 
Q 45.015625 0.34375 40.984375 -0.53125 
Q 36.96875 -1.421875 32.421875 -1.421875 
Q 20.0625 -1.421875 12.78125 6.34375 
Q 5.515625 14.109375 5.515625 27.296875 
Q 5.515625 40.671875 12.859375 48.328125 
Q 20.21875 56 33.015625 56 
Q 37.15625 56 41.109375 55.140625 
Q 45.0625 54.296875 48.78125 52.59375 
z
" id="DejaVuSans-99"/>
       <path d="M 32.171875 -5.078125 
Q 28.375 -14.84375 24.75 -17.8125 
Q 21.140625 -20.796875 15.09375 -20.796875 
L 7.90625 -20.796875 
L 7.90625 -13.28125 
L 13.1875 -13.28125 
Q 16.890625 -13.28125 18.9375 -11.515625 
Q 21 -9.765625 23.484375 -3.21875 
L 25.09375 0.875 
L 2.984375 54.6875 
L 12.5 54.6875 
L 29.59375 11.921875 
L 46.6875 54.6875 
L 56.203125 54.6875 
z
" id="DejaVuSans-121"/>
       <path id="DejaVuSans-32"/>
       <path d="M 31 75.875 
Q 24.46875 64.65625 21.28125 53.65625 
Q 18.109375 42.671875 18.109375 31.390625 
Q 18.109375 20.125 21.3125 9.0625 
Q 24.515625 -2 31 -13.1875 
L 23.1875 -13.1875 
Q 15.875 -1.703125 12.234375 9.375 
Q 8.59375 20.453125 8.59375 31.390625 
Q 8.59375 42.28125 12.203125 53.3125 
Q 15.828125 64.359375 23.1875 75.875 
z
" id="DejaVuSans-40"/>
       <path d="M 9.8125 72.90625 
L 19.671875 72.90625 
L 19.671875 43.015625 
L 55.515625 43.015625 
L 55.515625 72.90625 
L 65.375 72.90625 
L 65.375 0 
L 55.515625 0 
L 55.515625 34.71875 
L 19.671875 34.71875 
L 19.671875 0 
L 9.8125 0 
z
" id="DejaVuSans-72"/>
       <path d="M 5.515625 54.6875 
L 48.1875 54.6875 
L 48.1875 46.484375 
L 14.40625 7.171875 
L 48.1875 7.171875 
L 48.1875 0 
L 4.296875 0 
L 4.296875 8.203125 
L 38.09375 47.515625 
L 5.515625 47.515625 
z
" id="DejaVuSans-122"/>
       <path d="M 8.015625 75.875 
L 15.828125 75.875 
Q 23.140625 64.359375 26.78125 53.3125 
Q 30.421875 42.28125 30.421875 31.390625 
Q 30.421875 20.453125 26.78125 9.375 
Q 23.140625 -1.703125 15.828125 -13.1875 
L 8.015625 -13.1875 
Q 14.5 -2 17.703125 9.0625 
Q 20.90625 20.125 20.90625 31.390625 
Q 20.90625 42.671875 17.703125 53.65625 
Q 14.5 64.65625 8.015625 75.875 
z
" id="DejaVuSans-41"/>
      </defs>
      <use xlink:href="#DejaVuSans-70"/>
      <use x="50.269531" xlink:href="#DejaVuSans-114"/>
      <use x="89.132812" xlink:href="#DejaVuSans-101"/>
      <use x="150.65625" xlink:href="#DejaVuSans-113"/>
      <use x="214.132812" xlink:href="#DejaVuSans-117"/>
      <use x="277.511719" xlink:href="#DejaVuSans-101"/>
      <use x="339.035156" xlink:href="#DejaVuSans-110"/>
      <use x="402.414062" xlink:href="#DejaVuSans-99"/>
      <use x="457.394531" xlink:href="#DejaVuSans-121"/>
      <use x="516.574219" xlink:href="#DejaVuSans-32"/>
      <use x="548.361328" xlink:href="#DejaVuSans-40"/>
      <use x="587.375" xlink:href="#DejaVuSans-72"/>
      <use x="662.570312" xlink:href="#DejaVuSans-122"/>
      <use x="715.060547" xlink:href="#DejaVuSans-41"/>
     </g>
    </g>
    <g id="text_8">
     <!-- 1e7 -->
     <g style="fill:#555555;" transform="translate(371.809687 275.488906)scale(0.09 -0.09)">
      <defs>
       <path d="M 8.203125 72.90625 
L 55.078125 72.90625 
L 55.078125 68.703125 
L 28.609375 0 
L 18.3125 0 
L 43.21875 64.59375 
L 8.203125 64.59375 
z
" id="DejaVuSans-55"/>
      </defs>
      <use xlink:href="#DejaVuSans-49"/>
      <use x="63.623047" xlink:href="#DejaVuSans-101"/>
      <use x="125.146484" xlink:href="#DejaVuSans-55"/>
     </g>
    </g>
   </g>
   <g id="matplotlib.axis_2">
    <g id="ytick_1">
     <g id="line2d_13">
      <path clip-path="url(#p4a374da7a3)" d="M 51.84 221.584325 
L 388.8 221.584325 
" style="fill:none;stroke:#ffffff;stroke-linecap:square;stroke-width:0.8;"/>
     </g>
     <g id="line2d_14"/>
     <g id="text_9">
      <!-- 0.0 -->
      <g style="fill:#555555;" transform="translate(34.027187 225.003622)scale(0.09 -0.09)">
       <use xlink:href="#DejaVuSans-48"/>
       <use x="63.623047" xlink:href="#DejaVuSans-46"/>
       <use x="95.410156" xlink:href="#DejaVuSans-48"/>
      </g>
     </g>
    </g>
    <g id="ytick_2">
     <g id="line2d_15">
      <path clip-path="url(#p4a374da7a3)" d="M 51.84 185.198689 
L 388.8 185.198689 
" style="fill:none;stroke:#ffffff;stroke-linecap:square;stroke-width:0.8;"/>
     </g>
     <g id="line2d_16"/>
     <g id="text_10">
      <!-- 0.2 -->
      <g style="fill:#555555;" transform="translate(34.027187 188.617986)scale(0.09 -0.09)">
       <use xlink:href="#DejaVuSans-48"/>
       <use x="63.623047" xlink:href="#DejaVuSans-46"/>
       <use x="95.410156" xlink:href="#DejaVuSans-50"/>
      </g>
     </g>
    </g>
    <g id="ytick_3">
     <g id="line2d_17">
      <path clip-path="url(#p4a374da7a3)" d="M 51.84 148.813052 
L 388.8 148.813052 
" style="fill:none;stroke:#ffffff;stroke-linecap:square;stroke-width:0.8;"/>
     </g>
     <g id="line2d_18"/>
     <g id="text_11">
      <!-- 0.4 -->
      <g style="fill:#555555;" transform="translate(34.027187 152.232349)scale(0.09 -0.09)">
       <defs>
        <path d="M 37.796875 64.3125 
L 12.890625 25.390625 
L 37.796875 25.390625 
z
M 35.203125 72.90625 
L 47.609375 72.90625 
L 47.609375 25.390625 
L 58.015625 25.390625 
L 58.015625 17.1875 
L 47.609375 17.1875 
L 47.609375 0 
L 37.796875 0 
L 37.796875 17.1875 
L 4.890625 17.1875 
L 4.890625 26.703125 
z
" id="DejaVuSans-52"/>
       </defs>
       <use xlink:href="#DejaVuSans-48"/>
       <use x="63.623047" xlink:href="#DejaVuSans-46"/>
       <use x="95.410156" xlink:href="#DejaVuSans-52"/>
      </g>
     </g>
    </g>
    <g id="ytick_4">
     <g id="line2d_19">
      <path clip-path="url(#p4a374da7a3)" d="M 51.84 112.427416 
L 388.8 112.427416 
" style="fill:none;stroke:#ffffff;stroke-linecap:square;stroke-width:0.8;"/>
     </g>
     <g id="line2d_20"/>
     <g id="text_12">
      <!-- 0.6 -->
      <g style="fill:#555555;" transform="translate(34.027187 115.846713)scale(0.09 -0.09)">
       <defs>
        <path d="M 33.015625 40.375 
Q 26.375 40.375 22.484375 35.828125 
Q 18.609375 31.296875 18.609375 23.390625 
Q 18.609375 15.53125 22.484375 10.953125 
Q 26.375 6.390625 33.015625 6.390625 
Q 39.65625 6.390625 43.53125 10.953125 
Q 47.40625 15.53125 47.40625 23.390625 
Q 47.40625 31.296875 43.53125 35.828125 
Q 39.65625 40.375 33.015625 40.375 
z
M 52.59375 71.296875 
L 52.59375 62.3125 
Q 48.875 64.0625 45.09375 64.984375 
Q 41.3125 65.921875 37.59375 65.921875 
Q 27.828125 65.921875 22.671875 59.328125 
Q 17.53125 52.734375 16.796875 39.40625 
Q 19.671875 43.65625 24.015625 45.921875 
Q 28.375 48.1875 33.59375 48.1875 
Q 44.578125 48.1875 50.953125 41.515625 
Q 57.328125 34.859375 57.328125 23.390625 
Q 57.328125 12.15625 50.6875 5.359375 
Q 44.046875 -1.421875 33.015625 -1.421875 
Q 20.359375 -1.421875 13.671875 8.265625 
Q 6.984375 17.96875 6.984375 36.375 
Q 6.984375 53.65625 15.1875 63.9375 
Q 23.390625 74.21875 37.203125 74.21875 
Q 40.921875 74.21875 44.703125 73.484375 
Q 48.484375 72.75 52.59375 71.296875 
z
" id="DejaVuSans-54"/>
       </defs>
       <use xlink:href="#DejaVuSans-48"/>
       <use x="63.623047" xlink:href="#DejaVuSans-46"/>
       <use x="95.410156" xlink:href="#DejaVuSans-54"/>
      </g>
     </g>
    </g>
    <g id="ytick_5">
     <g id="line2d_21">
      <path clip-path="url(#p4a374da7a3)" d="M 51.84 76.041779 
L 388.8 76.041779 
" style="fill:none;stroke:#ffffff;stroke-linecap:square;stroke-width:0.8;"/>
     </g>
     <g id="line2d_22"/>
     <g id="text_13">
      <!-- 0.8 -->
      <g style="fill:#555555;" transform="translate(34.027187 79.461076)scale(0.09 -0.09)">
       <defs>
        <path d="M 31.78125 34.625 
Q 24.75 34.625 20.71875 30.859375 
Q 16.703125 27.09375 16.703125 20.515625 
Q 16.703125 13.921875 20.71875 10.15625 
Q 24.75 6.390625 31.78125 6.390625 
Q 38.8125 6.390625 42.859375 10.171875 
Q 46.921875 13.96875 46.921875 20.515625 
Q 46.921875 27.09375 42.890625 30.859375 
Q 38.875 34.625 31.78125 34.625 
z
M 21.921875 38.8125 
Q 15.578125 40.375 12.03125 44.71875 
Q 8.5 49.078125 8.5 55.328125 
Q 8.5 64.0625 14.71875 69.140625 
Q 20.953125 74.21875 31.78125 74.21875 
Q 42.671875 74.21875 48.875 69.140625 
Q 55.078125 64.0625 55.078125 55.328125 
Q 55.078125 49.078125 51.53125 44.71875 
Q 48 40.375 41.703125 38.8125 
Q 48.828125 37.15625 52.796875 32.3125 
Q 56.78125 27.484375 56.78125 20.515625 
Q 56.78125 9.90625 50.3125 4.234375 
Q 43.84375 -1.421875 31.78125 -1.421875 
Q 19.734375 -1.421875 13.25 4.234375 
Q 6.78125 9.90625 6.78125 20.515625 
Q 6.78125 27.484375 10.78125 32.3125 
Q 14.796875 37.15625 21.921875 38.8125 
z
M 18.3125 54.390625 
Q 18.3125 48.734375 21.84375 45.5625 
Q 25.390625 42.390625 31.78125 42.390625 
Q 38.140625 42.390625 41.71875 45.5625 
Q 45.3125 48.734375 45.3125 54.390625 
Q 45.3125 60.0625 41.71875 63.234375 
Q 38.140625 66.40625 31.78125 66.40625 
Q 25.390625 66.40625 21.84375 63.234375 
Q 18.3125 60.0625 18.3125 54.390625 
z
" id="DejaVuSans-56"/>
       </defs>
       <use xlink:href="#DejaVuSans-48"/>
       <use x="63.623047" xlink:href="#DejaVuSans-46"/>
       <use x="95.410156" xlink:href="#DejaVuSans-56"/>
      </g>
     </g>
    </g>
    <g id="ytick_6">
     <g id="line2d_23">
      <path clip-path="url(#p4a374da7a3)" d="M 51.84 39.656143 
L 388.8 39.656143 
" style="fill:none;stroke:#ffffff;stroke-linecap:square;stroke-width:0.8;"/>
     </g>
     <g id="line2d_24"/>
     <g id="text_14">
      <!-- 1.0 -->
      <g style="fill:#555555;" transform="translate(34.027187 43.07544)scale(0.09 -0.09)">
       <use xlink:href="#DejaVuSans-49"/>
       <use x="63.623047" xlink:href="#DejaVuSans-46"/>
       <use x="95.410156" xlink:href="#DejaVuSans-48"/>
      </g>
     </g>
    </g>
    <g id="text_15">
     <!-- Magnitude -->
     <g style="fill:#555555;" transform="translate(27.739531 170.258828)rotate(-90)scale(0.11 -0.11)">
      <defs>
       <path d="M 9.8125 72.90625 
L 24.515625 72.90625 
L 43.109375 23.296875 
L 61.8125 72.90625 
L 76.515625 72.90625 
L 76.515625 0 
L 66.890625 0 
L 66.890625 64.015625 
L 48.09375 14.015625 
L 38.1875 14.015625 
L 19.390625 64.015625 
L 19.390625 0 
L 9.8125 0 
z
" id="DejaVuSans-77"/>
       <path d="M 34.28125 27.484375 
Q 23.390625 27.484375 19.1875 25 
Q 14.984375 22.515625 14.984375 16.5 
Q 14.984375 11.71875 18.140625 8.90625 
Q 21.296875 6.109375 26.703125 6.109375 
Q 34.1875 6.109375 38.703125 11.40625 
Q 43.21875 16.703125 43.21875 25.484375 
L 43.21875 27.484375 
z
M 52.203125 31.203125 
L 52.203125 0 
L 43.21875 0 
L 43.21875 8.296875 
Q 40.140625 3.328125 35.546875 0.953125 
Q 30.953125 -1.421875 24.3125 -1.421875 
Q 15.921875 -1.421875 10.953125 3.296875 
Q 6 8.015625 6 15.921875 
Q 6 25.140625 12.171875 29.828125 
Q 18.359375 34.515625 30.609375 34.515625 
L 43.21875 34.515625 
L 43.21875 35.40625 
Q 43.21875 41.609375 39.140625 45 
Q 35.0625 48.390625 27.6875 48.390625 
Q 23 48.390625 18.546875 47.265625 
Q 14.109375 46.140625 10.015625 43.890625 
L 10.015625 52.203125 
Q 14.9375 54.109375 19.578125 55.046875 
Q 24.21875 56 28.609375 56 
Q 40.484375 56 46.34375 49.84375 
Q 52.203125 43.703125 52.203125 31.203125 
z
" id="DejaVuSans-97"/>
       <path d="M 45.40625 27.984375 
Q 45.40625 37.75 41.375 43.109375 
Q 37.359375 48.484375 30.078125 48.484375 
Q 22.859375 48.484375 18.828125 43.109375 
Q 14.796875 37.75 14.796875 27.984375 
Q 14.796875 18.265625 18.828125 12.890625 
Q 22.859375 7.515625 30.078125 7.515625 
Q 37.359375 7.515625 41.375 12.890625 
Q 45.40625 18.265625 45.40625 27.984375 
z
M 54.390625 6.78125 
Q 54.390625 -7.171875 48.1875 -13.984375 
Q 42 -20.796875 29.203125 -20.796875 
Q 24.46875 -20.796875 20.265625 -20.09375 
Q 16.0625 -19.390625 12.109375 -17.921875 
L 12.109375 -9.1875 
Q 16.0625 -11.328125 19.921875 -12.34375 
Q 23.78125 -13.375 27.78125 -13.375 
Q 36.625 -13.375 41.015625 -8.765625 
Q 45.40625 -4.15625 45.40625 5.171875 
L 45.40625 9.625 
Q 42.625 4.78125 38.28125 2.390625 
Q 33.9375 0 27.875 0 
Q 17.828125 0 11.671875 7.65625 
Q 5.515625 15.328125 5.515625 27.984375 
Q 5.515625 40.671875 11.671875 48.328125 
Q 17.828125 56 27.875 56 
Q 33.9375 56 38.28125 53.609375 
Q 42.625 51.21875 45.40625 46.390625 
L 45.40625 54.6875 
L 54.390625 54.6875 
z
" id="DejaVuSans-103"/>
       <path d="M 9.421875 54.6875 
L 18.40625 54.6875 
L 18.40625 0 
L 9.421875 0 
z
M 9.421875 75.984375 
L 18.40625 75.984375 
L 18.40625 64.59375 
L 9.421875 64.59375 
z
" id="DejaVuSans-105"/>
       <path d="M 18.3125 70.21875 
L 18.3125 54.6875 
L 36.8125 54.6875 
L 36.8125 47.703125 
L 18.3125 47.703125 
L 18.3125 18.015625 
Q 18.3125 11.328125 20.140625 9.421875 
Q 21.96875 7.515625 27.59375 7.515625 
L 36.8125 7.515625 
L 36.8125 0 
L 27.59375 0 
Q 17.1875 0 13.234375 3.875 
Q 9.28125 7.765625 9.28125 18.015625 
L 9.28125 47.703125 
L 2.6875 47.703125 
L 2.6875 54.6875 
L 9.28125 54.6875 
L 9.28125 70.21875 
z
" id="DejaVuSans-116"/>
       <path d="M 45.40625 46.390625 
L 45.40625 75.984375 
L 54.390625 75.984375 
L 54.390625 0 
L 45.40625 0 
L 45.40625 8.203125 
Q 42.578125 3.328125 38.25 0.953125 
Q 33.9375 -1.421875 27.875 -1.421875 
Q 17.96875 -1.421875 11.734375 6.484375 
Q 5.515625 14.40625 5.515625 27.296875 
Q 5.515625 40.1875 11.734375 48.09375 
Q 17.96875 56 27.875 56 
Q 33.9375 56 38.25 53.625 
Q 42.578125 51.265625 45.40625 46.390625 
z
M 14.796875 27.296875 
Q 14.796875 17.390625 18.875 11.75 
Q 22.953125 6.109375 30.078125 6.109375 
Q 37.203125 6.109375 41.296875 11.75 
Q 45.40625 17.390625 45.40625 27.296875 
Q 45.40625 37.203125 41.296875 42.84375 
Q 37.203125 48.484375 30.078125 48.484375 
Q 22.953125 48.484375 18.875 42.84375 
Q 14.796875 37.203125 14.796875 27.296875 
z
" id="DejaVuSans-100"/>
      </defs>
      <use xlink:href="#DejaVuSans-77"/>
      <use x="86.279297" xlink:href="#DejaVuSans-97"/>
      <use x="147.558594" xlink:href="#DejaVuSans-103"/>
      <use x="211.035156" xlink:href="#DejaVuSans-110"/>
      <use x="274.414062" xlink:href="#DejaVuSans-105"/>
      <use x="302.197266" xlink:href="#DejaVuSans-116"/>
      <use x="341.40625" xlink:href="#DejaVuSans-117"/>
      <use x="404.785156" xlink:href="#DejaVuSans-100"/>
      <use x="468.261719" xlink:href="#DejaVuSans-101"/>
     </g>
    </g>
   </g>
   <g id="PathCollection_1">
    <defs>
     <path d="M 0 1.5 
C 0.397805 1.5 0.77937 1.341951 1.06066 1.06066 
C 1.341951 0.77937 1.5 0.397805 1.5 0 
C 1.5 -0.397805 1.341951 -0.77937 1.06066 -1.06066 
C 0.77937 -1.341951 0.397805 -1.5 0 -1.5 
C -0.397805 -1.5 -0.77937 -1.341951 -1.06066 -1.06066 
C -1.341951 -0.77937 -1.5 -0.397805 -1.5 0 
C -1.5 0.397805 -1.341951 0.77937 -1.06066 1.06066 
C -0.77937 1.341951 -0.397805 1.5 0 1.5 
z
" id="m9602625736" style="stroke:#ff0000;stroke-width:0.5;"/>
    </defs>
    <g clip-path="url(#p4a374da7a3)">
     <use style="fill:#ff0000;stroke:#ff0000;stroke-width:0.5;" x="51.84" xlink:href="#m9602625736" y="60.891429"/>
     <use style="fill:#ff0000;stroke:#ff0000;stroke-width:0.5;" x="55.2096" xlink:href="#m9602625736" y="72.251835"/>
     <use style="fill:#ff0000;stroke:#ff0000;stroke-width:0.5;" x="58.5792" xlink:href="#m9602625736" y="84.325817"/>
     <use style="fill:#ff0000;stroke:#ff0000;stroke-width:0.5;" x="61.9488" xlink:href="#m9602625736" y="96.487429"/>
     <use style="fill:#ff0000;stroke:#ff0000;stroke-width:0.5;" x="65.3184" xlink:href="#m9602625736" y="108.333691"/>
     <use style="fill:#ff0000;stroke:#ff0000;stroke-width:0.5;" x="68.688" xlink:href="#m9602625736" y="119.637662"/>
     <use style="fill:#ff0000;stroke:#ff0000;stroke-width:0.5;" x="72.0576" xlink:href="#m9602625736" y="130.294128"/>
     <use style="fill:#ff0000;stroke:#ff0000;stroke-width:0.5;" x="75.4272" xlink:href="#m9602625736" y="140.274419"/>
     <use style="fill:#ff0000;stroke:#ff0000;stroke-width:0.5;" x="78.7968" xlink:href="#m9602625736" y="149.594105"/>
     <use style="fill:#ff0000;stroke:#ff0000;stroke-width:0.5;" x="82.1664" xlink:href="#m9602625736" y="158.291893"/>
     <use style="fill:#ff0000;stroke:#ff0000;stroke-width:0.5;" x="85.536" xlink:href="#m9602625736" y="166.416676"/>
     <use style="fill:#ff0000;stroke:#ff0000;stroke-width:0.5;" x="88.9056" xlink:href="#m9602625736" y="174.02002"/>
     <use style="fill:#ff0000;stroke:#ff0000;stroke-width:0.5;" x="92.2752" xlink:href="#m9602625736" y="181.152056"/>
     <use style="fill:#ff0000;stroke:#ff0000;stroke-width:0.5;" x="95.6448" xlink:href="#m9602625736" y="187.859422"/>
     <use style="fill:#ff0000;stroke:#ff0000;stroke-width:0.5;" x="99.0144" xlink:href="#m9602625736" y="194.18442"/>
     <use style="fill:#ff0000;stroke:#ff0000;stroke-width:0.5;" x="102.384" xlink:href="#m9602625736" y="200.164821"/>
     <use style="fill:#ff0000;stroke:#ff0000;stroke-width:0.5;" x="105.7536" xlink:href="#m9602625736" y="205.834047"/>
     <use style="fill:#ff0000;stroke:#ff0000;stroke-width:0.5;" x="109.1232" xlink:href="#m9602625736" y="211.221508"/>
     <use style="fill:#ff0000;stroke:#ff0000;stroke-width:0.5;" x="112.4928" xlink:href="#m9602625736" y="216.353017"/>
     <use style="fill:#ff0000;stroke:#ff0000;stroke-width:0.5;" x="115.8624" xlink:href="#m9602625736" y="221.251202"/>
     <use style="fill:#ff0000;stroke:#ff0000;stroke-width:0.5;" x="119.232" xlink:href="#m9602625736" y="217.232738"/>
     <use style="fill:#ff0000;stroke:#ff0000;stroke-width:0.5;" x="122.6016" xlink:href="#m9602625736" y="212.744078"/>
     <use style="fill:#ff0000;stroke:#ff0000;stroke-width:0.5;" x="125.9712" xlink:href="#m9602625736" y="208.436139"/>
     <use style="fill:#ff0000;stroke:#ff0000;stroke-width:0.5;" x="129.3408" xlink:href="#m9602625736" y="204.295404"/>
     <use style="fill:#ff0000;stroke:#ff0000;stroke-width:0.5;" x="132.7104" xlink:href="#m9602625736" y="200.309926"/>
     <use style="fill:#ff0000;stroke:#ff0000;stroke-width:0.5;" x="136.08" xlink:href="#m9602625736" y="196.469109"/>
     <use style="fill:#ff0000;stroke:#ff0000;stroke-width:0.5;" x="139.4496" xlink:href="#m9602625736" y="192.76353"/>
     <use style="fill:#ff0000;stroke:#ff0000;stroke-width:0.5;" x="142.8192" xlink:href="#m9602625736" y="189.184778"/>
     <use style="fill:#ff0000;stroke:#ff0000;stroke-width:0.5;" x="146.1888" xlink:href="#m9602625736" y="185.725323"/>
     <use style="fill:#ff0000;stroke:#ff0000;stroke-width:0.5;" x="149.5584" xlink:href="#m9602625736" y="182.378395"/>
     <use style="fill:#ff0000;stroke:#ff0000;stroke-width:0.5;" x="152.928" xlink:href="#m9602625736" y="179.137891"/>
     <use style="fill:#ff0000;stroke:#ff0000;stroke-width:0.5;" x="156.2976" xlink:href="#m9602625736" y="175.998285"/>
     <use style="fill:#ff0000;stroke:#ff0000;stroke-width:0.5;" x="159.6672" xlink:href="#m9602625736" y="172.954557"/>
     <use style="fill:#ff0000;stroke:#ff0000;stroke-width:0.5;" x="163.0368" xlink:href="#m9602625736" y="170.002129"/>
     <use style="fill:#ff0000;stroke:#ff0000;stroke-width:0.5;" x="166.4064" xlink:href="#m9602625736" y="167.136812"/>
     <use style="fill:#ff0000;stroke:#ff0000;stroke-width:0.5;" x="169.776" xlink:href="#m9602625736" y="164.35476"/>
     <use style="fill:#ff0000;stroke:#ff0000;stroke-width:0.5;" x="173.1456" xlink:href="#m9602625736" y="161.652426"/>
     <use style="fill:#ff0000;stroke:#ff0000;stroke-width:0.5;" x="176.5152" xlink:href="#m9602625736" y="159.026532"/>
     <use style="fill:#ff0000;stroke:#ff0000;stroke-width:0.5;" x="179.8848" xlink:href="#m9602625736" y="156.474034"/>
     <use style="fill:#ff0000;stroke:#ff0000;stroke-width:0.5;" x="183.2544" xlink:href="#m9602625736" y="153.992099"/>
     <use style="fill:#ff0000;stroke:#ff0000;stroke-width:0.5;" x="186.624" xlink:href="#m9602625736" y="151.578082"/>
     <use style="fill:#ff0000;stroke:#ff0000;stroke-width:0.5;" x="189.9936" xlink:href="#m9602625736" y="149.229505"/>
     <use style="fill:#ff0000;stroke:#ff0000;stroke-width:0.5;" x="193.3632" xlink:href="#m9602625736" y="146.944039"/>
     <use style="fill:#ff0000;stroke:#ff0000;stroke-width:0.5;" x="196.7328" xlink:href="#m9602625736" y="144.719491"/>
     <use style="fill:#ff0000;stroke:#ff0000;stroke-width:0.5;" x="200.1024" xlink:href="#m9602625736" y="142.55379"/>
     <use style="fill:#ff0000;stroke:#ff0000;stroke-width:0.5;" x="203.472" xlink:href="#m9602625736" y="140.444976"/>
     <use style="fill:#ff0000;stroke:#ff0000;stroke-width:0.5;" x="206.8416" xlink:href="#m9602625736" y="138.391188"/>
     <use style="fill:#ff0000;stroke:#ff0000;stroke-width:0.5;" x="210.2112" xlink:href="#m9602625736" y="136.390656"/>
     <use style="fill:#ff0000;stroke:#ff0000;stroke-width:0.5;" x="213.5808" xlink:href="#m9602625736" y="134.441696"/>
     <use style="fill:#ff0000;stroke:#ff0000;stroke-width:0.5;" x="216.9504" xlink:href="#m9602625736" y="132.542697"/>
     <use style="fill:#ff0000;stroke:#ff0000;stroke-width:0.5;" x="220.32" xlink:href="#m9602625736" y="130.692123"/>
     <use style="fill:#ff0000;stroke:#ff0000;stroke-width:0.5;" x="223.6896" xlink:href="#m9602625736" y="128.888499"/>
     <use style="fill:#ff0000;stroke:#ff0000;stroke-width:0.5;" x="227.0592" xlink:href="#m9602625736" y="127.130414"/>
     <use style="fill:#ff0000;stroke:#ff0000;stroke-width:0.5;" x="230.4288" xlink:href="#m9602625736" y="125.416509"/>
     <use style="fill:#ff0000;stroke:#ff0000;stroke-width:0.5;" x="233.7984" xlink:href="#m9602625736" y="123.745482"/>
     <use style="fill:#ff0000;stroke:#ff0000;stroke-width:0.5;" x="237.168" xlink:href="#m9602625736" y="122.116077"/>
     <use style="fill:#ff0000;stroke:#ff0000;stroke-width:0.5;" x="240.5376" xlink:href="#m9602625736" y="120.527084"/>
     <use style="fill:#ff0000;stroke:#ff0000;stroke-width:0.5;" x="243.9072" xlink:href="#m9602625736" y="118.977338"/>
     <use style="fill:#ff0000;stroke:#ff0000;stroke-width:0.5;" x="247.2768" xlink:href="#m9602625736" y="117.465714"/>
     <use style="fill:#ff0000;stroke:#ff0000;stroke-width:0.5;" x="250.6464" xlink:href="#m9602625736" y="115.991125"/>
     <use style="fill:#ff0000;stroke:#ff0000;stroke-width:0.5;" x="254.016" xlink:href="#m9602625736" y="114.552521"/>
     <use style="fill:#ff0000;stroke:#ff0000;stroke-width:0.5;" x="257.3856" xlink:href="#m9602625736" y="113.148887"/>
     <use style="fill:#ff0000;stroke:#ff0000;stroke-width:0.5;" x="260.7552" xlink:href="#m9602625736" y="111.779242"/>
     <use style="fill:#ff0000;stroke:#ff0000;stroke-width:0.5;" x="264.1248" xlink:href="#m9602625736" y="110.442634"/>
     <use style="fill:#ff0000;stroke:#ff0000;stroke-width:0.5;" x="267.4944" xlink:href="#m9602625736" y="109.138143"/>
     <use style="fill:#ff0000;stroke:#ff0000;stroke-width:0.5;" x="270.864" xlink:href="#m9602625736" y="107.864879"/>
     <use style="fill:#ff0000;stroke:#ff0000;stroke-width:0.5;" x="274.2336" xlink:href="#m9602625736" y="106.621977"/>
     <use style="fill:#ff0000;stroke:#ff0000;stroke-width:0.5;" x="277.6032" xlink:href="#m9602625736" y="105.4086"/>
     <use style="fill:#ff0000;stroke:#ff0000;stroke-width:0.5;" x="280.9728" xlink:href="#m9602625736" y="104.223938"/>
     <use style="fill:#ff0000;stroke:#ff0000;stroke-width:0.5;" x="284.3424" xlink:href="#m9602625736" y="103.067204"/>
     <use style="fill:#ff0000;stroke:#ff0000;stroke-width:0.5;" x="287.712" xlink:href="#m9602625736" y="101.937634"/>
     <use style="fill:#ff0000;stroke:#ff0000;stroke-width:0.5;" x="291.0816" xlink:href="#m9602625736" y="100.834489"/>
     <use style="fill:#ff0000;stroke:#ff0000;stroke-width:0.5;" x="294.4512" xlink:href="#m9602625736" y="99.75705"/>
     <use style="fill:#ff0000;stroke:#ff0000;stroke-width:0.5;" x="297.8208" xlink:href="#m9602625736" y="98.70462"/>
     <use style="fill:#ff0000;stroke:#ff0000;stroke-width:0.5;" x="301.1904" xlink:href="#m9602625736" y="97.676524"/>
     <use style="fill:#ff0000;stroke:#ff0000;stroke-width:0.5;" x="304.56" xlink:href="#m9602625736" y="96.672106"/>
     <use style="fill:#ff0000;stroke:#ff0000;stroke-width:0.5;" x="307.9296" xlink:href="#m9602625736" y="95.690728"/>
     <use style="fill:#ff0000;stroke:#ff0000;stroke-width:0.5;" x="311.2992" xlink:href="#m9602625736" y="94.731773"/>
     <use style="fill:#ff0000;stroke:#ff0000;stroke-width:0.5;" x="314.6688" xlink:href="#m9602625736" y="93.794639"/>
     <use style="fill:#ff0000;stroke:#ff0000;stroke-width:0.5;" x="318.0384" xlink:href="#m9602625736" y="92.878745"/>
     <use style="fill:#ff0000;stroke:#ff0000;stroke-width:0.5;" x="321.408" xlink:href="#m9602625736" y="91.983525"/>
     <use style="fill:#ff0000;stroke:#ff0000;stroke-width:0.5;" x="324.7776" xlink:href="#m9602625736" y="91.108429"/>
     <use style="fill:#ff0000;stroke:#ff0000;stroke-width:0.5;" x="328.1472" xlink:href="#m9602625736" y="90.252924"/>
     <use style="fill:#ff0000;stroke:#ff0000;stroke-width:0.5;" x="331.5168" xlink:href="#m9602625736" y="89.416492"/>
     <use style="fill:#ff0000;stroke:#ff0000;stroke-width:0.5;" x="334.8864" xlink:href="#m9602625736" y="88.598631"/>
     <use style="fill:#ff0000;stroke:#ff0000;stroke-width:0.5;" x="338.256" xlink:href="#m9602625736" y="87.798851"/>
     <use style="fill:#ff0000;stroke:#ff0000;stroke-width:0.5;" x="341.6256" xlink:href="#m9602625736" y="87.016679"/>
     <use style="fill:#ff0000;stroke:#ff0000;stroke-width:0.5;" x="344.9952" xlink:href="#m9602625736" y="86.251653"/>
     <use style="fill:#ff0000;stroke:#ff0000;stroke-width:0.5;" x="348.3648" xlink:href="#m9602625736" y="85.503326"/>
     <use style="fill:#ff0000;stroke:#ff0000;stroke-width:0.5;" x="351.7344" xlink:href="#m9602625736" y="84.771264"/>
     <use style="fill:#ff0000;stroke:#ff0000;stroke-width:0.5;" x="355.104" xlink:href="#m9602625736" y="84.055044"/>
     <use style="fill:#ff0000;stroke:#ff0000;stroke-width:0.5;" x="358.4736" xlink:href="#m9602625736" y="83.354257"/>
     <use style="fill:#ff0000;stroke:#ff0000;stroke-width:0.5;" x="361.8432" xlink:href="#m9602625736" y="82.668504"/>
     <use style="fill:#ff0000;stroke:#ff0000;stroke-width:0.5;" x="365.2128" xlink:href="#m9602625736" y="81.997398"/>
     <use style="fill:#ff0000;stroke:#ff0000;stroke-width:0.5;" x="368.5824" xlink:href="#m9602625736" y="81.340563"/>
     <use style="fill:#ff0000;stroke:#ff0000;stroke-width:0.5;" x="371.952" xlink:href="#m9602625736" y="80.697634"/>
     <use style="fill:#ff0000;stroke:#ff0000;stroke-width:0.5;" x="375.3216" xlink:href="#m9602625736" y="80.068257"/>
     <use style="fill:#ff0000;stroke:#ff0000;stroke-width:0.5;" x="378.6912" xlink:href="#m9602625736" y="79.452086"/>
     <use style="fill:#ff0000;stroke:#ff0000;stroke-width:0.5;" x="382.0608" xlink:href="#m9602625736" y="78.848786"/>
     <use style="fill:#ff0000;stroke:#ff0000;stroke-width:0.5;" x="385.4304" xlink:href="#m9602625736" y="78.258033"/>
     <use style="fill:#ff0000;stroke:#ff0000;stroke-width:0.5;" x="388.8" xlink:href="#m9602625736" y="77.67951"/>
    </g>
   </g>
   <g id="line2d_25">
    <path clip-path="url(#p4a374da7a3)" d="M 51.84 60.891429 
L 54.538378 69.907788 
L 58.923243 85.571974 
L 65.331892 108.380138 
L 69.042162 120.789155 
L 72.752432 132.407439 
L 76.125405 142.258743 
L 79.498378 151.454784 
L 82.871351 160.037357 
L 86.244324 168.056543 
L 89.954595 176.288561 
L 93.664865 183.967196 
L 97.375135 191.15267 
L 101.422703 198.491806 
L 105.47027 205.368589 
L 109.855135 212.357094 
L 114.24 218.920627 
L 115.926486 221.342234 
L 116.263784 221.348571 
L 120.985946 214.872849 
L 125.708108 208.766312 
L 130.767568 202.58955 
L 135.827027 196.752652 
L 141.223784 190.86391 
L 146.957838 184.951779 
L 152.691892 179.361605 
L 158.763243 173.761949 
L 164.834595 168.462799 
L 171.243243 163.168468 
L 177.651892 158.157421 
L 184.397838 153.165443 
L 191.143784 148.442399 
L 198.227027 143.751982 
L 205.647568 139.112775 
L 213.068108 134.734972 
L 220.825946 130.418348 
L 228.921081 126.178014 
L 237.016216 122.188595 
L 245.448649 118.28117 
L 254.218378 114.467242 
L 263.325405 110.756787 
L 272.76973 107.15826 
L 282.551351 103.678615 
L 292.67027 100.323347 
L 303.126486 97.096559 
L 313.92 94.001035 
L 325.050811 91.038341 
L 336.856216 88.128927 
L 348.998919 85.364331 
L 361.816216 82.673937 
L 375.308108 80.07075 
L 388.8 77.67951 
L 388.8 77.67951 
" style="fill:none;stroke:#000000;stroke-linecap:square;"/>
   </g>
   <g id="patch_3">
    <path d="M 51.84 253.44 
L 51.84 28.8 
" style="fill:none;stroke:#ffffff;stroke-linecap:square;stroke-linejoin:miter;"/>
   </g>
   <g id="patch_4">
    <path d="M 388.8 253.44 
L 388.8 28.8 
" style="fill:none;stroke:#ffffff;stroke-linecap:square;stroke-linejoin:miter;"/>
   </g>
   <g id="patch_5">
    <path d="M 51.84 253.44 
L 388.8 253.44 
" style="fill:none;stroke:#ffffff;stroke-linecap:square;stroke-linejoin:miter;"/>
   </g>
   <g id="patch_6">
    <path d="M 51.84 28.8 
L 388.8 28.8 
" style="fill:none;stroke:#ffffff;stroke-linecap:square;stroke-linejoin:miter;"/>
   </g>
   <g id="text_16">
    <!-- Response i=0, j=1 -->
    <g transform="translate(146.2375 22.8)scale(0.16 -0.16)">
     <defs>
      <path d="M 44.390625 34.1875 
Q 47.5625 33.109375 50.5625 29.59375 
Q 53.5625 26.078125 56.59375 19.921875 
L 66.609375 0 
L 56 0 
L 46.6875 18.703125 
Q 43.0625 26.03125 39.671875 28.421875 
Q 36.28125 30.8125 30.421875 30.8125 
L 19.671875 30.8125 
L 19.671875 0 
L 9.8125 0 
L 9.8125 72.90625 
L 32.078125 72.90625 
Q 44.578125 72.90625 50.734375 67.671875 
Q 56.890625 62.453125 56.890625 51.90625 
Q 56.890625 45.015625 53.6875 40.46875 
Q 50.484375 35.9375 44.390625 34.1875 
z
M 19.671875 64.796875 
L 19.671875 38.921875 
L 32.078125 38.921875 
Q 39.203125 38.921875 42.84375 42.21875 
Q 46.484375 45.515625 46.484375 51.90625 
Q 46.484375 58.296875 42.84375 61.546875 
Q 39.203125 64.796875 32.078125 64.796875 
z
" id="DejaVuSans-82"/>
      <path d="M 44.28125 53.078125 
L 44.28125 44.578125 
Q 40.484375 46.53125 36.375 47.5 
Q 32.28125 48.484375 27.875 48.484375 
Q 21.1875 48.484375 17.84375 46.4375 
Q 14.5 44.390625 14.5 40.28125 
Q 14.5 37.15625 16.890625 35.375 
Q 19.28125 33.59375 26.515625 31.984375 
L 29.59375 31.296875 
Q 39.15625 29.25 43.1875 25.515625 
Q 47.21875 21.78125 47.21875 15.09375 
Q 47.21875 7.46875 41.1875 3.015625 
Q 35.15625 -1.421875 24.609375 -1.421875 
Q 20.21875 -1.421875 15.453125 -0.5625 
Q 10.6875 0.296875 5.421875 2 
L 5.421875 11.28125 
Q 10.40625 8.6875 15.234375 7.390625 
Q 20.0625 6.109375 24.8125 6.109375 
Q 31.15625 6.109375 34.5625 8.28125 
Q 37.984375 10.453125 37.984375 14.40625 
Q 37.984375 18.0625 35.515625 20.015625 
Q 33.0625 21.96875 24.703125 23.78125 
L 21.578125 24.515625 
Q 13.234375 26.265625 9.515625 29.90625 
Q 5.8125 33.546875 5.8125 39.890625 
Q 5.8125 47.609375 11.28125 51.796875 
Q 16.75 56 26.8125 56 
Q 31.78125 56 36.171875 55.265625 
Q 40.578125 54.546875 44.28125 53.078125 
z
" id="DejaVuSans-115"/>
      <path d="M 18.109375 8.203125 
L 18.109375 -20.796875 
L 9.078125 -20.796875 
L 9.078125 54.6875 
L 18.109375 54.6875 
L 18.109375 46.390625 
Q 20.953125 51.265625 25.265625 53.625 
Q 29.59375 56 35.59375 56 
Q 45.5625 56 51.78125 48.09375 
Q 58.015625 40.1875 58.015625 27.296875 
Q 58.015625 14.40625 51.78125 6.484375 
Q 45.5625 -1.421875 35.59375 -1.421875 
Q 29.59375 -1.421875 25.265625 0.953125 
Q 20.953125 3.328125 18.109375 8.203125 
z
M 48.6875 27.296875 
Q 48.6875 37.203125 44.609375 42.84375 
Q 40.53125 48.484375 33.40625 48.484375 
Q 26.265625 48.484375 22.1875 42.84375 
Q 18.109375 37.203125 18.109375 27.296875 
Q 18.109375 17.390625 22.1875 11.75 
Q 26.265625 6.109375 33.40625 6.109375 
Q 40.53125 6.109375 44.609375 11.75 
Q 48.6875 17.390625 48.6875 27.296875 
z
" id="DejaVuSans-112"/>
      <path d="M 30.609375 48.390625 
Q 23.390625 48.390625 19.1875 42.75 
Q 14.984375 37.109375 14.984375 27.296875 
Q 14.984375 17.484375 19.15625 11.84375 
Q 23.34375 6.203125 30.609375 6.203125 
Q 37.796875 6.203125 41.984375 11.859375 
Q 46.1875 17.53125 46.1875 27.296875 
Q 46.1875 37.015625 41.984375 42.703125 
Q 37.796875 48.390625 30.609375 48.390625 
z
M 30.609375 56 
Q 42.328125 56 49.015625 48.375 
Q 55.71875 40.765625 55.71875 27.296875 
Q 55.71875 13.875 49.015625 6.21875 
Q 42.328125 -1.421875 30.609375 -1.421875 
Q 18.84375 -1.421875 12.171875 6.21875 
Q 5.515625 13.875 5.515625 27.296875 
Q 5.515625 40.765625 12.171875 48.375 
Q 18.84375 56 30.609375 56 
z
" id="DejaVuSans-111"/>
      <path d="M 10.59375 45.40625 
L 73.1875 45.40625 
L 73.1875 37.203125 
L 10.59375 37.203125 
z
M 10.59375 25.484375 
L 73.1875 25.484375 
L 73.1875 17.1875 
L 10.59375 17.1875 
z
" id="DejaVuSans-61"/>
      <path d="M 11.71875 12.40625 
L 22.015625 12.40625 
L 22.015625 4 
L 14.015625 -11.625 
L 7.71875 -11.625 
L 11.71875 4 
z
" id="DejaVuSans-44"/>
      <path d="M 9.421875 54.6875 
L 18.40625 54.6875 
L 18.40625 -0.984375 
Q 18.40625 -11.421875 14.421875 -16.109375 
Q 10.453125 -20.796875 1.609375 -20.796875 
L -1.8125 -20.796875 
L -1.8125 -13.1875 
L 0.59375 -13.1875 
Q 5.71875 -13.1875 7.5625 -10.8125 
Q 9.421875 -8.453125 9.421875 -0.984375 
z
M 9.421875 75.984375 
L 18.40625 75.984375 
L 18.40625 64.59375 
L 9.421875 64.59375 
z
" id="DejaVuSans-106"/>
     </defs>
     <use xlink:href="#DejaVuSans-82"/>
     <use x="64.982422" xlink:href="#DejaVuSans-101"/>
     <use x="126.505859" xlink:href="#DejaVuSans-115"/>
     <use x="178.605469" xlink:href="#DejaVuSans-112"/>
     <use x="242.082031" xlink:href="#DejaVuSans-111"/>
     <use x="303.263672" xlink:href="#DejaVuSans-110"/>
     <use x="366.642578" xlink:href="#DejaVuSans-115"/>
     <use x="418.742188" xlink:href="#DejaVuSans-101"/>
     <use x="480.265625" xlink:href="#DejaVuSans-32"/>
     <use x="512.052734" xlink:href="#DejaVuSans-105"/>
     <use x="539.835938" xlink:href="#DejaVuSans-61"/>
     <use x="623.625" xlink:href="#DejaVuSans-48"/>
     <use x="687.248047" xlink:href="#DejaVuSans-44"/>
     <use x="719.035156" xlink:href="#DejaVuSans-32"/>
     <use x="750.822266" xlink:href="#DejaVuSans-106"/>
     <use x="778.605469" xlink:href="#DejaVuSans-61"/>
     <use x="862.394531" xlink:href="#DejaVuSans-49"/>
    </g>
   </g>
   <g id="legend_1">
    <g id="patch_7">
     <path d="M 313.464375 62.420625 
L 384.3 62.420625 
L 384.3 33.3 
L 313.464375 33.3 
z
" style="fill:#e5e5e5;opacity:0.8;stroke:#cccccc;stroke-linejoin:miter;stroke-width:0.5;"/>
    </g>
    <g id="line2d_26">
     <path d="M 317.064375 40.588594 
L 335.064375 40.588594 
" style="fill:none;stroke:#000000;stroke-linecap:square;"/>
    </g>
    <g id="line2d_27"/>
    <g id="text_17">
     <!-- Fit -->
     <g transform="translate(342.264375 43.738594)scale(0.09 -0.09)">
      <use xlink:href="#DejaVuSans-70"/>
      <use x="50.269531" xlink:href="#DejaVuSans-105"/>
      <use x="78.052734" xlink:href="#DejaVuSans-116"/>
     </g>
    </g>
    <g id="PathCollection_2">
     <g>
      <use style="fill:#ff0000;stroke:#ff0000;stroke-width:0.5;" x="326.064375" xlink:href="#m9602625736" y="54.586406"/>
     </g>
    </g>
    <g id="text_18">
     <!-- Samples -->
     <g transform="translate(342.264375 56.948906)scale(0.09 -0.09)">
      <defs>
       <path d="M 53.515625 70.515625 
L 53.515625 60.890625 
Q 47.90625 63.578125 42.921875 64.890625 
Q 37.9375 66.21875 33.296875 66.21875 
Q 25.25 66.21875 20.875 63.09375 
Q 16.5 59.96875 16.5 54.203125 
Q 16.5 49.359375 19.40625 46.890625 
Q 22.3125 44.4375 30.421875 42.921875 
L 36.375 41.703125 
Q 47.40625 39.59375 52.65625 34.296875 
Q 57.90625 29 57.90625 20.125 
Q 57.90625 9.515625 50.796875 4.046875 
Q 43.703125 -1.421875 29.984375 -1.421875 
Q 24.8125 -1.421875 18.96875 -0.25 
Q 13.140625 0.921875 6.890625 3.21875 
L 6.890625 13.375 
Q 12.890625 10.015625 18.65625 8.296875 
Q 24.421875 6.59375 29.984375 6.59375 
Q 38.421875 6.59375 43.015625 9.90625 
Q 47.609375 13.234375 47.609375 19.390625 
Q 47.609375 24.75 44.3125 27.78125 
Q 41.015625 30.8125 33.5 32.328125 
L 27.484375 33.5 
Q 16.453125 35.6875 11.515625 40.375 
Q 6.59375 45.0625 6.59375 53.421875 
Q 6.59375 63.09375 13.40625 68.65625 
Q 20.21875 74.21875 32.171875 74.21875 
Q 37.3125 74.21875 42.625 73.28125 
Q 47.953125 72.359375 53.515625 70.515625 
z
" id="DejaVuSans-83"/>
       <path d="M 52 44.1875 
Q 55.375 50.25 60.0625 53.125 
Q 64.75 56 71.09375 56 
Q 79.640625 56 84.28125 50.015625 
Q 88.921875 44.046875 88.921875 33.015625 
L 88.921875 0 
L 79.890625 0 
L 79.890625 32.71875 
Q 79.890625 40.578125 77.09375 44.375 
Q 74.3125 48.1875 68.609375 48.1875 
Q 61.625 48.1875 57.5625 43.546875 
Q 53.515625 38.921875 53.515625 30.90625 
L 53.515625 0 
L 44.484375 0 
L 44.484375 32.71875 
Q 44.484375 40.625 41.703125 44.40625 
Q 38.921875 48.1875 33.109375 48.1875 
Q 26.21875 48.1875 22.15625 43.53125 
Q 18.109375 38.875 18.109375 30.90625 
L 18.109375 0 
L 9.078125 0 
L 9.078125 54.6875 
L 18.109375 54.6875 
L 18.109375 46.1875 
Q 21.1875 51.21875 25.484375 53.609375 
Q 29.78125 56 35.6875 56 
Q 41.65625 56 45.828125 52.96875 
Q 50 49.953125 52 44.1875 
z
" id="DejaVuSans-109"/>
       <path d="M 9.421875 75.984375 
L 18.40625 75.984375 
L 18.40625 0 
L 9.421875 0 
z
" id="DejaVuSans-108"/>
      </defs>
      <use xlink:href="#DejaVuSans-83"/>
      <use x="63.476562" xlink:href="#DejaVuSans-97"/>
      <use x="124.755859" xlink:href="#DejaVuSans-109"/>
      <use x="222.167969" xlink:href="#DejaVuSans-112"/>
      <use x="285.644531" xlink:href="#DejaVuSans-108"/>
      <use x="313.427734" xlink:href="#DejaVuSans-101"/>
      <use x="374.951172" xlink:href="#DejaVuSans-115"/>
     </g>
    </g>
   </g>
  </g>
 </g>
 <defs>
  <clipPath id="p4a374da7a3">
   <rect height="224.64" width="336.96" x="51.84" y="28.8"/>
  </clipPath>
 </defs>
</svg>
